# xmcd CD database file
#
# Track frame offsets:
#	150
#	9460
#	19292
#	29617
#	46217
#	54037
#	69715
#	85627
#	97372
#	105662
#	123745
#	139622
#	159497
#
# Disc length: 2258 seconds
#
# Revision: 0
# Processed by: cddbd v1.5.1PL0 Copyright (c) Steve Scherf et al.
# Submitted via: CDex 1.51
#
DISCID=aa08d00d
DTITLE=安田芙充夫 - JAZZ Vol.1
DYEAR=1900
DGENRE=Jazz
TTITLE0=いつか王子様が
TTITLE1=枯葉
TTITLE2=いそしぎ
TTITLE3=虹の彼方に
TTITLE4=A列車でいこう
TTITLE5=煙が目にしみる
TTITLE6=エミリ
TTITLE7=On Green Dolphin Street
TTITLE8=My Romance
TTITLE9=Stardust
TTITLE10=Try To Remember
TTITLE11=Polka Dots And Moonbeams
TTITLE12=Recado
EXTD=
EXTT0=
EXTT1=
EXTT2=
EXTT3=
EXTT4=
EXTT5=
EXTT6=
EXTT7=
EXTT8=
EXTT9=
EXTT10=
EXTT11=
EXTT12=
PLAYORDER=
